<svg width="80" height="80" viewBox="0 0 80 80" fill="none" xmlns="http://www.w3.org/2000/svg">
<g id="arrow-right">
<path id="Vector" d="M40 2.5C19.2847 2.5 2.5 19.2847 2.5 40C2.5 60.7153 19.2847 77.5 40 77.5C60.7153 77.5 77.5 60.7153 77.5 40C77.5 19.2847 60.7153 2.5 40 2.5ZM63.5316 43.5388L47.2852 59.7852C45.332 61.7383 42.168 61.7383 40.2148 59.7852C38.2617 57.832 38.2617 54.668 40.2148 52.7148L47.9297 45H20C17.2363 45 15 42.7613 15 40C15 37.2387 17.2363 35 20 35H47.9297L40.2148 27.2852C38.2617 25.332 38.2617 22.168 40.2148 20.2148C42.168 18.2617 45.332 18.2617 47.2852 20.2148L63.5316 36.4613C64.7812 37.7088 65 39.2347 65 40C65 40.763 64.7827 42.29 63.5316 43.5388Z" fill="#35305A"/>
<path id="Vector_2" d="M63.5316 43.3761L47.2852 59.6223C45.332 61.5754 42.168 61.5754 40.2148 59.6223C38.2617 57.6692 38.2617 54.5051 40.2148 52.552L47.9297 44.8372H20C17.2363 44.8372 15 42.5984 15 39.8372C15 37.0759 17.2363 34.8372 20 34.8372H47.9297L40.2148 27.1223C38.2617 25.1692 38.2617 22.0051 40.2148 20.052C42.168 18.0989 45.332 18.0989 47.2852 20.052L63.5316 36.2984C64.7812 37.5459 65 39.0718 65 39.8372C65 40.6001 64.7827 42.1273 63.5316 43.3761Z" fill="#7261A8"/>
</g>
</svg>
