<svg width="80" height="80" viewBox="0 0 80 80" fill="none" xmlns="http://www.w3.org/2000/svg">
<g id="arrow-left">
<path id="Vector" d="M40 2.5C19.2847 2.5 2.5 19.2847 2.5 40C2.5 60.7153 19.2847 77.5 40 77.5C60.7153 77.5 77.5 60.7153 77.5 40C77.5 19.2847 60.7153 2.5 40 2.5ZM60 45H32.0703L39.7852 52.7148C41.7383 54.668 41.7383 57.832 39.7852 59.7852C37.832 61.7383 34.668 61.7383 32.7148 59.7852L16.4684 43.5388C15.2188 42.2913 15 40.7653 15 40C15 39.237 15.2173 37.71 16.4684 36.4613L32.7148 20.2148C34.668 18.2617 37.832 18.2617 39.7852 20.2148C41.7383 22.168 41.7383 25.332 39.7852 27.2852L32.0703 35H60C62.7637 35 65 37.2387 65 40C65 42.7613 62.7637 45 60 45Z" fill="#35305A"/>
<path id="Vector_2" d="M60 45H32.0703L39.7852 52.7148C41.7383 54.668 41.7383 57.832 39.7852 59.7852C37.832 61.7383 34.668 61.7383 32.7148 59.7852L16.4684 43.5388C15.2188 42.2913 15 40.7653 15 40C15 39.237 15.2173 37.71 16.4684 36.4613L32.7148 20.2148C34.668 18.2617 37.832 18.2617 39.7852 20.2148C41.7383 22.168 41.7383 25.332 39.7852 27.2852L32.0703 35H60C62.7637 35 65 37.2387 65 40C65 42.7613 62.7637 45 60 45Z" fill="#7261A8"/>
</g>
</svg>
