<svg width="60" height="60" viewBox="0 0 60 60" fill="none" xmlns="http://www.w3.org/2000/svg">
<g id="audio">
<path id="Vector" d="M30 1.875C14.4669 1.875 1.875 14.4671 1.875 30C1.875 45.5329 14.4669 58.125 30 58.125C45.5331 58.125 58.125 45.5329 58.125 30C58.125 14.4671 45.5331 1.875 30 1.875ZM24.375 16.875C24.375 13.7677 26.8927 11.25 30 11.25C33.1073 11.25 35.625 13.7677 35.625 16.875V30C35.625 33.1073 33.1073 35.625 30 35.625C26.8927 35.625 24.375 33.1073 24.375 30V16.875ZM45 30C45 37.6291 39.2542 43.8757 31.875 44.8105V47.8125C31.875 48.3302 31.4552 48.75 30.9375 48.75H29.0625C28.5448 48.75 28.125 48.3302 28.125 47.8125V44.8105C20.7458 43.8757 15 37.6291 15 30V27.1875C15 26.6698 15.4198 26.25 15.9375 26.25H17.8125C18.3302 26.25 18.75 26.6698 18.75 27.1875V29.6086C18.75 35.3256 22.8492 40.4273 28.5198 41.1548C35.3805 42.035 41.25 36.6907 41.25 30V27.1875C41.25 26.6698 41.6698 26.25 42.1875 26.25H44.0625C44.5802 26.25 45 26.6698 45 27.1875V30Z" fill="#f5b82e"/>
<path id="Vector_2" d="M30 35.625C33.1073 35.625 35.625 33.1073 35.625 30V16.875C35.625 13.7677 33.1073 11.25 30 11.25C26.8927 11.25 24.375 13.7677 24.375 16.875V30C24.375 33.1073 26.8927 35.625 30 35.625ZM44.0625 26.25H42.1875C41.6698 26.25 41.25 26.6698 41.25 27.1875V30C41.25 36.6907 35.3805 42.035 28.5198 41.1548C22.8492 40.4273 18.75 35.3256 18.75 29.6086V27.1875C18.75 26.6698 18.3302 26.25 17.8125 26.25H15.9375C15.4198 26.25 15 26.6698 15 27.1875V30C15 37.6291 20.7458 43.8757 28.125 44.8105V47.8125C28.125 48.3302 28.5448 48.75 29.0625 48.75H30.9375C31.4552 48.75 31.875 48.3302 31.875 47.8125V44.8105C39.2542 43.8757 45 37.6291 45 30V27.1875C45 26.6698 44.5802 26.25 44.0625 26.25Z" fill="#35305A"/>
</g>
</svg>
