<svg width="111" height="111" viewBox="0 0 111 111" fill="none" xmlns="http://www.w3.org/2000/svg">
<path d="M107.531 55.5C107.531 84.236 84.236 107.531 55.5 107.531C26.764 107.531 3.46875 84.236 3.46875 55.5C3.46875 26.764 26.764 3.46875 55.5 3.46875C84.236 3.46875 107.531 26.764 107.531 55.5Z" fill="#35305A"/>
<g clip-path="url(#clip0_106_19)">
<path d="M65.5239 72.3018C67.3773 72.3018 68.8799 70.7973 68.8799 68.9414L68.8799 42.0586C68.8799 40.2027 67.3773 38.6982 65.5239 38.6982C63.6705 38.6982 62.168 40.2027 62.168 42.0586L62.168 68.9414C62.168 70.7973 63.6705 72.3018 65.5239 72.3018ZM85.6597 58.8604C87.5131 58.8604 89.0156 57.3559 89.0156 55.5C89.0156 53.6441 87.5131 52.1396 85.6597 52.1396C83.8062 52.1396 82.3037 53.6441 82.3037 55.5C82.3037 57.3559 83.8062 58.8604 85.6597 58.8604ZM25.2524 58.8604C27.1058 58.8604 28.6084 57.3559 28.6084 55.5C28.6084 53.6441 27.1058 52.1397 25.2524 52.1397C23.399 52.1397 21.8965 53.6441 21.8965 55.5C21.8965 57.3559 23.399 58.8604 25.2524 58.8604ZM45.3882 68.9414C47.2416 68.9414 48.7441 67.4369 48.7441 65.5811L48.7441 45.4189C48.7441 43.5631 47.2416 42.0586 45.3882 42.0586C43.5347 42.0586 42.0322 43.5631 42.0322 45.4189L42.0322 65.5811C42.0322 67.4369 43.5347 68.9414 45.3882 68.9414Z" fill="#F4AC32"/>
<path d="M75.5918 62.2207C77.4452 62.2207 78.9478 60.7162 78.9478 58.8604L78.9478 52.1396C78.9478 50.2838 77.4452 48.7793 75.5918 48.7793C73.7384 48.7793 72.2358 50.2838 72.2358 52.1396L72.2358 58.8604C72.2358 60.7162 73.7384 62.2207 75.5918 62.2207ZM55.456 82.3828C57.3095 82.3828 58.812 80.8783 58.812 79.0225L58.812 31.9775C58.812 30.1217 57.3095 28.6172 55.456 28.6172C53.6026 28.6172 52.1001 30.1217 52.1001 31.9775L52.1001 79.0225C52.1001 80.8783 53.6026 82.3828 55.456 82.3828ZM35.3203 75.6621C37.1737 75.6621 38.6763 74.1576 38.6763 72.3018L38.6762 38.6982C38.6762 36.8424 37.1737 35.3379 35.3203 35.3379C33.4669 35.3379 31.9643 36.8424 31.9643 38.6982L31.9643 72.3018C31.9643 74.1576 33.4669 75.6621 35.3203 75.6621Z" fill="#FFD131"/>
</g>
<defs>
<clipPath id="clip0_106_19">
<rect width="67.1192" height="53.7656" fill="white" transform="translate(89.0156 82.3828) rotate(180)"/>
</clipPath>
</defs>
</svg>
