<svg width="100" height="100" viewBox="0 0 100 100" fill="none" xmlns="http://www.w3.org/2000/svg">
<g id="logo">
<path id="Vector" d="M50 3.125C24.1115 3.125 3.125 24.1115 3.125 50C3.125 75.8885 24.1115 96.875 50 96.875C75.8885 96.875 96.875 75.8885 96.875 50C96.875 24.1115 75.8885 3.125 50 3.125ZM31.25 65.625C31.25 67.3508 29.8508 68.75 28.125 68.75C26.3992 68.75 25 67.3508 25 65.625V34.375C25 32.6488 26.3992 31.25 28.125 31.25C29.8508 31.25 31.25 32.6488 31.25 34.375V65.625ZM43.75 57.8125C43.75 59.5383 42.3508 60.9375 40.625 60.9375C38.8992 60.9375 37.5 59.5383 37.5 57.8125V42.1875C37.5 40.4613 38.8992 39.0625 40.625 39.0625C42.3508 39.0625 43.75 40.4613 43.75 42.1875V57.8125ZM56.25 70.3125C56.25 72.0383 54.8508 73.4375 53.125 73.4375C51.3992 73.4375 50 72.0383 50 70.3125V29.6875C50 27.9613 51.3992 26.5625 53.125 26.5625C54.8508 26.5625 56.25 27.9613 56.25 29.6875V70.3125ZM68.75 60.9375C68.75 62.6633 67.3508 64.0625 65.625 64.0625C63.8992 64.0625 62.5 62.6633 62.5 60.9375V39.0625C62.5 37.3363 63.8992 35.9375 65.625 35.9375C67.3508 35.9375 68.75 37.3363 68.75 39.0625V60.9375ZM81.25 53.125C81.25 54.8508 79.8508 56.25 78.125 56.25C76.3992 56.25 75 54.8508 75 53.125V46.875C75 45.1488 76.3992 43.75 78.125 43.75C79.8508 43.75 81.25 45.1488 81.25 46.875V53.125Z" fill="#4B3F72"/>
<path id="Vector_2" d="M28.125 31.25C26.3992 31.25 25 32.6488 25 34.375V65.625C25 67.3508 26.3992 68.75 28.125 68.75C29.8508 68.75 31.25 67.3508 31.25 65.625V34.375C31.25 32.6488 29.8508 31.25 28.125 31.25ZM53.125 26.5625C51.3992 26.5625 50 27.9613 50 29.6875V70.3125C50 72.0383 51.3992 73.4375 53.125 73.4375C54.8508 73.4375 56.25 72.0383 56.25 70.3125V29.6875C56.25 27.9613 54.8508 26.5625 53.125 26.5625ZM40.625 39.0625C38.8992 39.0625 37.5 40.4613 37.5 42.1875V57.8125C37.5 59.5383 38.8992 60.9375 40.625 60.9375C42.3508 60.9375 43.75 59.5383 43.75 57.8125V42.1875C43.75 40.4613 42.3508 39.0625 40.625 39.0625ZM78.125 43.75C76.3992 43.75 75 45.1488 75 46.875V53.125C75 54.8508 76.3992 56.25 78.125 56.25C79.8508 56.25 81.25 54.8508 81.25 53.125V46.875C81.25 45.1488 79.8508 43.75 78.125 43.75ZM65.625 35.9375C63.8992 35.9375 62.5 37.3363 62.5 39.0625V60.9375C62.5 62.6633 63.8992 64.0625 65.625 64.0625C67.3508 64.0625 68.75 62.6633 68.75 60.9375V39.0625C68.75 37.3363 67.3508 35.9375 65.625 35.9375Z" fill="#F4AC32"/>
</g>
</svg>
