<svg width="125" height="100" viewBox="0 0 125 100" fill="none" xmlns="http://www.w3.org/2000/svg">
<g id="logo" clip-path="url(#clip0_79_13)">
<path id="Vector" d="M81.1437 81.25C84.591 81.25 87.3856 78.4518 87.3856 75L87.3856 25C87.3856 21.5482 84.591 18.75 81.1437 18.75C77.6965 18.75 74.9019 21.5482 74.9019 25L74.9019 75C74.9019 78.4518 77.6965 81.25 81.1437 81.25ZM118.595 56.25C122.042 56.25 124.837 53.4518 124.837 50C124.837 46.5482 122.042 43.75 118.595 43.75C115.147 43.75 112.353 46.5482 112.353 50C112.353 53.4518 115.147 56.25 118.595 56.25ZM6.2418 56.25C9.68904 56.25 12.4836 53.4518 12.4836 50C12.4836 46.5483 9.68904 43.75 6.2418 43.75C2.79455 43.75 -3.35513e-05 46.5483 -3.32495e-05 50C-3.29478e-05 53.4518 2.79455 56.25 6.2418 56.25ZM43.6928 75C47.14 75 49.9346 72.2018 49.9346 68.75L49.9346 31.25C49.9346 27.7982 47.14 25 43.6928 25C40.2455 25 37.4509 27.7982 37.4509 31.25L37.4509 68.75C37.4509 72.2018 40.2455 75 43.6928 75Z" fill="#F4AC32"/>
<path id="Vector_2" d="M99.8693 62.5C103.316 62.5 106.111 59.7018 106.111 56.25L106.111 43.75C106.111 40.2982 103.316 37.5 99.8693 37.5C96.422 37.5 93.6274 40.2982 93.6274 43.75L93.6274 56.25C93.6274 59.7018 96.422 62.5 99.8693 62.5ZM62.4183 100C65.8655 100 68.6601 97.2018 68.6601 93.75L68.6601 6.25C68.6601 2.79825 65.8655 3.51838e-06 62.4183 3.81975e-06C58.971 4.12111e-06 56.1764 2.79825 56.1764 6.25L56.1765 93.75C56.1765 97.2018 58.971 100 62.4183 100ZM24.9673 87.5C28.4146 87.5 31.2091 84.7018 31.2091 81.25L31.2091 18.75C31.2091 15.2982 28.4146 12.5 24.9673 12.5C21.5201 12.5 18.7255 15.2982 18.7255 18.75L18.7255 81.25C18.7255 84.7018 21.5201 87.5 24.9673 87.5Z" fill="#FFD131"/>
</g>
<defs>
<clipPath id="clip0_79_13">
<rect width="124.837" height="100" fill="white" transform="translate(124.837 100) rotate(180)"/>
</clipPath>
</defs>
</svg>
