<svg width="60" height="60" viewBox="0 0 60 60" fill="none" xmlns="http://www.w3.org/2000/svg">
<g id="playlist" clip-path="url(#clip0_79_2)">
<path id="Vector" d="M56.2536 18.75H3.7465C0.902823 18.75 -0.118583 21.3075 0.0107922 22.8369L2.77689 53.1807C3.12892 57.0431 6.36798 60 10.2468 60H49.7535C53.6323 60 56.8712 57.0431 57.2234 53.1807L59.9893 22.8369C60.119 21.3041 59.0726 18.75 56.2536 18.75ZM30.0001 55.415C18.9536 55.415 9.56274 49.0283 8.99146 40.752C8.4054 32.0068 17.7962 24.5361 30.0001 24.5361C42.204 24.5361 51.5947 32.0068 51.0088 40.752C50.4374 49.0283 41.0466 55.415 30.0001 55.415Z" fill="#35305A"/>
<path id="Vector_2" d="M55.3198 9.375H4.68773C3.13488 9.375 1.875 10.6348 1.875 12.1875V15H58.1325V12.1875C58.1325 10.6348 56.8726 9.375 55.3198 9.375ZM56.2574 2.8125C56.2574 1.25977 54.9973 0 53.4443 0H6.5632C5.01035 0 3.75023 1.25977 3.75023 2.8125V5.625H56.2574V2.8125ZM30.0037 24.5361C17.8 24.5361 8.40914 32.0068 8.99508 40.752C9.56648 49.0283 18.9573 55.415 30.0037 55.415C41.0502 55.415 50.4411 49.0283 51.0124 40.752C51.5985 32.0068 42.2077 24.5361 30.0037 24.5361ZM30.0037 43.3008C28.0846 43.3008 26.5171 42.1729 26.5024 40.752C26.4877 39.3311 28.0553 38.1592 30.0037 38.1592C31.9522 38.1592 33.5196 39.3457 33.5051 40.752C33.4907 42.1582 31.9229 43.3008 30.0037 43.3008Z" fill="#FFD131"/>
</g>
<defs>
<clipPath id="clip0_79_2">
<rect width="60" height="60" fill="white"/>
</clipPath>
</defs>
</svg>
