<svg width="60" height="60" viewBox="0 0 60 60" fill="none" xmlns="http://www.w3.org/2000/svg">
<g id="album">
<path id="Vector" d="M51.4286 0H8.57143C3.85714 0 0 3.85714 0 8.57143V51.4286C0 56.1429 3.85714 60 8.57143 60H51.4286C56.1429 60 60 56.1429 60 51.4286V8.57143C60 3.85714 56.1429 0 51.4286 0ZM30 51.4286C18.1641 51.4286 8.57143 41.8359 8.57143 30C8.57143 18.1641 18.1641 8.57143 30 8.57143C41.8359 8.57143 51.4286 18.1641 51.4286 30C51.4286 41.8359 41.8359 51.4286 30 51.4286Z" fill="#FFD131"/>
<path id="Vector_2" d="M30.0001 25.7143C27.6396 25.7143 25.7144 27.6395 25.7144 30C25.7144 32.3605 27.6396 34.2857 30.0001 34.2857C32.3606 34.2857 34.2858 32.3605 34.2858 30C34.2858 27.6395 32.3606 25.7143 30.0001 25.7143ZM30.0001 51.4286C18.1642 51.4286 8.57153 41.8359 8.57153 30C8.57153 18.164 18.1642 8.57141 30.0001 8.57141C41.836 8.57141 51.4287 18.164 51.4287 30C51.4287 41.8359 41.836 51.4286 30.0001 51.4286Z" fill="#35305A"/>
</g>
</svg>
