<svg width="60" height="60" viewBox="0 0 60 60" fill="none" xmlns="http://www.w3.org/2000/svg">
<g id="radio" clip-path="url(#clip0_79_5)">
<path id="Vector" d="M52.4996 15H7.5C3.35789 15 0 18.358 0 22.5V52.4999C0 56.642 3.35789 59.9999 7.5 59.9999H52.4996C56.642 59.9999 59.9996 56.642 59.9996 52.4999V22.5C59.9996 18.358 56.642 15 52.4996 15ZM9.375 29.0625C9.375 28.5462 9.79605 28.125 10.3124 28.125H23.4374C23.9537 28.125 24.3749 28.5462 24.3749 29.0625V30.9375C24.3749 31.4538 23.9537 31.875 23.4374 31.875H10.3124C9.79605 31.875 9.375 31.4538 9.375 30.9375V29.0625ZM24.3749 45.9375C24.3749 46.4538 23.9537 46.875 23.4374 46.875H10.3124C9.79605 46.875 9.375 46.4538 9.375 45.9375V44.0625C9.375 43.5461 9.79605 43.125 10.3124 43.125H23.4374C23.9537 43.125 24.3749 43.5461 24.3749 44.0625V45.9375ZM26.2499 38.4375C26.2499 38.9538 25.8287 39.375 25.3124 39.375H8.4375C7.92105 39.375 7.5 38.9538 7.5 38.4375V36.5625C7.5 36.0462 7.92105 35.625 8.4375 35.625H25.3124C25.8287 35.625 26.2499 36.0462 26.2499 36.5625V38.4375ZM43.1248 46.875C37.9502 46.875 33.7498 42.6745 33.7498 37.5C33.7498 32.3255 37.9502 28.125 43.1248 28.125C48.2993 28.125 52.4996 32.3255 52.4996 37.5C52.4996 42.6745 48.2993 46.875 43.1248 46.875Z" fill="#35305A"/>
<path id="Vector_2" d="M59.886 2.0216C59.4502 0.532971 57.8938 -0.322146 56.3959 0.113674L6.06422 14.8664C5.12051 15.1426 4.27957 15.6063 3.51562 16.1673C4.67215 15.4382 6.03152 15 7.49977 15H25.6063L57.9779 5.51156C59.4684 5.07399 60.3217 3.51199 59.886 2.0216ZM43.1245 28.125C37.95 28.125 33.7496 32.3255 33.7496 37.5C33.7496 42.6745 37.95 46.875 43.1245 46.875C48.2991 46.875 52.4995 42.6745 52.4995 37.5C52.4995 32.3255 48.2991 28.125 43.1245 28.125Z" fill="#FFD131"/>
</g>
<defs>
<clipPath id="clip0_79_5">
<rect width="60" height="60" fill="white"/>
</clipPath>
</defs>
</svg>
