<svg width="60" height="60" viewBox="0 0 60 60" fill="none" xmlns="http://www.w3.org/2000/svg">
<g id="circle-radio">
<path id="Vector" d="M58.125 30C58.125 45.533 45.533 58.125 30 58.125C14.467 58.125 1.875 45.533 1.875 30C1.875 14.467 14.467 1.875 30 1.875C45.533 1.875 58.125 14.467 58.125 30Z" fill="#f5b82e"/>
<g id="radio" clip-path="url(#clip0_106_6)">
<path id="Vector_2" d="M42.8748 21.25H18.125C15.8468 21.25 14 23.0969 14 25.375V41.8749C14 44.1531 15.8468 45.9999 18.125 45.9999H42.8748C45.1531 45.9999 46.9998 44.1531 46.9998 41.8749V25.375C46.9998 23.0969 45.1531 21.25 42.8748 21.25ZM19.1562 28.9844C19.1562 28.7004 19.3878 28.4687 19.6718 28.4687H26.8906C27.1745 28.4687 27.4062 28.7004 27.4062 28.9844V30.0156C27.4062 30.2996 27.1745 30.5312 26.8906 30.5312H19.6718C19.3878 30.5312 19.1562 30.2996 19.1562 30.0156V28.9844ZM27.4062 38.2656C27.4062 38.5496 27.1745 38.7812 26.8906 38.7812H19.6718C19.3878 38.7812 19.1562 38.5496 19.1562 38.2656V37.2344C19.1562 36.9503 19.3878 36.7187 19.6718 36.7187H26.8906C27.1745 36.7187 27.4062 36.9503 27.4062 37.2344V38.2656ZM28.4374 34.1406C28.4374 34.4246 28.2058 34.6562 27.9218 34.6562H18.6406C18.3566 34.6562 18.125 34.4246 18.125 34.1406V33.1094C18.125 32.8254 18.3566 32.5937 18.6406 32.5937H27.9218C28.2058 32.5937 28.4374 32.8254 28.4374 33.1094V34.1406ZM37.7186 38.7812C34.8726 38.7812 32.5624 36.471 32.5624 33.625C32.5624 30.779 34.8726 28.4687 37.7186 28.4687C40.5646 28.4687 42.8748 30.779 42.8748 33.625C42.8748 36.471 40.5646 38.7812 37.7186 38.7812Z" fill="#35305A"/>
<path id="Vector_3" d="M46.9373 14.1119C46.6976 13.2931 45.8416 12.8228 45.0177 13.0625L17.3353 21.1765C16.8163 21.3284 16.3538 21.5835 15.9336 21.892C16.5697 21.491 17.3173 21.25 18.1249 21.25H28.0835L45.8879 16.0314C46.7076 15.7907 47.1769 14.9316 46.9373 14.1119ZM37.7185 28.4688C34.8725 28.4688 32.5623 30.779 32.5623 33.625C32.5623 36.471 34.8725 38.7813 37.7185 38.7813C40.5645 38.7813 42.8747 36.471 42.8747 33.625C42.8747 30.779 40.5645 28.4688 37.7185 28.4688Z" fill="#897AB8"/>
</g>
</g>
<defs>
<clipPath id="clip0_106_6">
<rect width="33" height="33" fill="white" transform="translate(14 13)"/>
</clipPath>
</defs>
</svg>
