<svg width="60" height="60" viewBox="0 0 60 60" fill="none" xmlns="http://www.w3.org/2000/svg">
<g id="search">
<path id="Vector" d="M58.125 30C58.125 45.533 45.533 58.125 30 58.125C14.467 58.125 1.875 45.533 1.875 30C1.875 14.467 14.467 1.875 30 1.875C45.533 1.875 58.125 14.467 58.125 30Z" fill="#35305A"/>
<g id="search_2">
<path id="Vector_2" d="M27.7148 17.6953C22.1812 17.6953 17.6953 22.1812 17.6953 27.7148C17.6953 33.2485 22.1812 37.7344 27.7148 37.7344C33.2485 37.7344 37.7344 33.2485 37.7344 27.7148C37.7344 22.1812 33.2485 17.6953 27.7148 17.6953ZM27.7148 33.8807C24.3149 33.8807 21.549 31.1146 21.549 27.7148C21.549 24.3149 24.3149 21.549 27.7148 21.549C31.1147 21.549 33.8807 24.3149 33.8807 27.7148C33.8807 31.1146 31.1147 33.8807 27.7148 33.8807Z" fill="#FFD131"/>
<path id="Vector_3" d="M41.9672 40.8809L40.8809 41.9672C40.4309 42.4172 39.7013 42.4172 39.2513 41.9672L33.2812 35.9972C34.3523 35.2756 35.2756 34.3523 35.9972 33.2812L41.9672 39.2513C42.4172 39.7013 42.4172 40.4309 41.9672 40.8809Z" fill="#FFD131"/>
</g>
</g>
</svg>
