<svg width="60" height="60" viewBox="0 0 60 60" fill="none" xmlns="http://www.w3.org/2000/svg">
<g id="trend">
<path id="Vector" d="M58.125 30C58.125 45.533 45.533 58.125 30 58.125C14.467 58.125 1.875 45.533 1.875 30C1.875 14.467 14.467 1.875 30 1.875C45.533 1.875 58.125 14.467 58.125 30Z" fill="#FFD131"/>
<g id="arrow">
<path id="Vector_2" d="M44.5833 26.6829L33.5563 37.71C33.1494 38.1169 32.6164 38.3203 32.0833 38.3203C31.5503 38.3203 31.0173 38.1169 30.6104 37.71L23.75 30.8496L14.8063 39.7933C14.3994 40.2002 13.8664 40.4036 13.3333 40.4036C12.1433 40.4036 11.25 39.4305 11.25 38.3203C11.25 37.7872 11.4535 37.2542 11.8604 36.8473L22.277 26.4307C22.6839 26.0238 23.2169 25.8203 23.75 25.8203C24.2831 25.8203 24.8161 26.0238 25.223 26.4307L32.0833 33.291L41.6374 23.737H44.5833V26.6829Z" fill="#35305A"/>
<path id="Vector_3" d="M46.6666 34.1536C45.5151 34.1536 44.5833 33.2208 44.5833 32.0703V23.737H36.25C35.0984 23.737 34.1666 22.8042 34.1666 21.6536C34.1666 20.5031 35.0984 19.5703 36.25 19.5703H46.6666C47.8182 19.5703 48.75 20.5031 48.75 21.6536V32.0703C48.75 33.2208 47.8182 34.1536 46.6666 34.1536Z" fill="#35305A"/>
</g>
</g>
</svg>
