<svg width="60" height="60" viewBox="0 0 60 60" fill="none" xmlns="http://www.w3.org/2000/svg">
<g id="user">
<path id="Vector" d="M30 1.875C14.4669 1.875 1.875 14.4669 1.875 30C1.875 45.5331 14.4669 58.125 30 58.125C45.5331 58.125 58.125 45.5331 58.125 30C58.125 14.4669 45.5331 1.875 30 1.875ZM30 15C34.6601 15 38.4375 18.7777 38.4375 23.4375C38.4375 28.0973 34.6601 31.875 30 31.875C25.3404 31.875 21.5625 28.0973 21.5625 23.4375C21.5625 18.7777 25.3404 15 30 15ZM30 50.625C23.7664 50.625 18.1821 47.8341 14.3971 43.4491C16.6005 39.8909 20.5076 37.5 25.0001 37.5H34.9999C39.4929 37.5 43.3997 39.8906 45.6029 43.4489C41.8177 47.8341 36.2336 50.625 30 50.625Z" fill="#f5b82e"/>
<path id="Vector_2" d="M30.017 31.875C34.677 31.875 38.4545 28.0973 38.4545 23.4375C38.4545 18.7777 34.677 15 30.017 15C25.3574 15 21.5795 18.7777 21.5795 23.4375C21.5795 28.0973 25.3574 31.875 30.017 31.875ZM35.0169 37.5H25.0171C20.5246 37.5 16.6175 39.8909 14.4141 43.4491C18.1991 47.8341 23.7833 50.625 30.017 50.625C36.2507 50.625 41.8345 47.8341 45.6198 43.4489C43.4166 39.8906 39.5098 37.5 35.0169 37.5Z" fill="#35305A"/>
</g>
</svg>
